<svg width="143" height="27" viewBox="0 0 143 27" fill="none" xmlns="http://www.w3.org/2000/svg">
<path d="M24.4 26H15.58L15.94 23.12L15.4 20.96L15.04 20.6L13.24 21.5H10.9L9.1 20.6L8.74 20.96L8.2 23.12L8.56 26H0.28L1.72 23.12L6.76 3.14L6.22 0.799998H18.46L17.92 3.14L22.96 23.12L24.4 26ZM13.96 14.48L12.232 7.1L12.052 5.84L11.872 7.1L10.144 14.48L10.432 15.2L11.152 15.56H12.952L13.672 15.2L13.96 14.48ZM42.9358 21.32L38.2558 26H28.3558L25.8358 23.48L24.7558 21.32V19.88L30.5158 17V18.98L31.5958 20.06H34.1158L35.1958 19.52L35.7358 18.44V16.82L34.8358 15.92L29.2558 14.66L26.0158 11.42V5.48L30.6958 0.799998H40.4158L42.6838 7.64L39.5878 6.56H34.8358L33.7558 7.1L33.2158 8.18V8.9L33.9358 9.62L39.5158 10.88L42.9358 14.3V21.32ZM67.4144 21.32L62.7344 26H51.5744L46.8944 21.32V5.48L51.5744 0.799998H62.7344L67.4144 5.48V21.32ZM60.2144 17.9V8.54L59.4944 7.1L58.0544 6.38H56.2544L54.8144 7.1L54.0944 8.54V17.9L54.8144 19.34L56.2544 20.06H58.0544L59.4944 19.34L60.2144 17.9ZM93.5298 20.78L90.8298 26.18H87.0498L83.4498 22.58V17.9L83.0898 17.54H80.0298L79.6698 17.9V23.12L80.5698 26H71.9298L72.8298 23.12V3.68L71.9298 0.799998H87.5898L92.2698 5.48V12.14L89.2098 15.2L90.1098 16.1V18.8L91.3698 20.06L93.5298 20.78ZM85.2498 9.62V8.72L84.5298 7.28L83.0898 6.56H80.0298L79.6698 6.92V11.42L80.0298 11.78H83.0898L84.5298 11.06L85.2498 9.62ZM117.125 21.32L112.445 26H101.285L96.6053 21.32V5.48L101.285 0.799998H112.445L117.125 5.48V21.32ZM109.925 17.9V8.54L109.205 7.1L107.765 6.38H105.965L104.525 7.1L103.805 8.54V17.9L104.525 19.34L105.965 20.06H107.765L109.205 19.34L109.925 17.9ZM142.881 26H135.321L136.041 23.12V22.4L129.201 12.14L128.481 10.34L128.661 12.14V23.12L129.561 26H121.641L122.541 23.12V3.68L121.461 0.799998H129.201L135.501 10.268L136.221 11.96L136.041 10.232V3.68L135.141 0.799998H142.881L141.981 3.68V23.12L142.881 26Z" fill="#FDD08D"/>
</svg>
