<svg width="19" height="19" viewBox="0 0 19 19" fill="none" xmlns="http://www.w3.org/2000/svg">
<path d="M12.171 11.4777L11.8678 11.8294L12.1962 12.1578L18.4921 18.4538C18.4922 18.4539 18.4922 18.4539 18.4923 18.454C18.4972 18.4591 18.5 18.4659 18.5 18.473C18.5 18.4801 18.4971 18.487 18.4921 18.4921C18.487 18.4971 18.4801 18.5 18.473 18.5C18.4659 18.5 18.4591 18.4972 18.454 18.4923C18.454 18.4922 18.4539 18.4922 18.4539 18.4921L12.158 12.1961L11.8296 11.8677L11.4779 12.171C10.1761 13.2934 8.48986 13.8675 6.77362 13.7723C5.05739 13.6772 3.44488 12.9204 2.27511 11.6609C1.10535 10.4015 0.469455 8.7375 0.501129 7.01888C0.532803 5.30026 1.22958 3.66086 2.44495 2.44536C3.66033 1.22986 5.29963 0.532949 7.01821 0.501139C8.73678 0.469328 10.4007 1.1051 11.6603 2.27479C12.9198 3.44448 13.6768 5.05697 13.772 6.77324C13.8673 8.48951 13.2934 10.1759 12.171 11.4777ZM0.579327 7.15349L0.579328 7.15407C0.581275 8.89701 1.27449 10.568 2.5069 11.8005C3.7393 13.033 5.41026 13.7263 7.15318 13.7283H7.15375C8.45404 13.7283 9.72513 13.3427 10.8063 12.6203C11.8874 11.8979 12.7301 10.8711 13.2277 9.66973C13.7253 8.4684 13.8555 7.14649 13.6019 5.87116C13.3482 4.59583 12.7221 3.42436 11.8027 2.50488C10.8832 1.58541 9.7118 0.959222 8.43649 0.705516C7.16119 0.45181 5.8393 0.581977 4.63798 1.07956C3.43665 1.57714 2.40986 2.41978 1.68742 3.50093C0.964991 4.58208 0.579372 5.85318 0.579327 7.15349Z" fill="#FDD08D" stroke="#FDD08D"/>
</svg>
