<svg width="305" height="87" viewBox="0 0 305 87" fill="none" xmlns="http://www.w3.org/2000/svg">
<path d="M58.3538 72.9072H40.3575L41.092 67.0309L39.9902 62.6236L39.2556 61.8891L35.5829 63.7254H30.8084L27.1357 61.8891L26.4011 62.6236L25.2993 67.0309L26.0338 72.9072H9.13931L12.0775 67.0309L22.3611 26.2636L21.2593 21.4891H46.2338L45.132 26.2636L55.4156 67.0309L58.3538 72.9072ZM37.052 49.4018L33.5262 34.3436L33.1589 31.7727L32.7917 34.3436L29.2658 49.4018L29.8535 50.8709L31.3226 51.6054H34.9953L36.4644 50.8709L37.052 49.4018ZM96.1743 63.3581L86.6252 72.9072H66.4252L61.2834 67.7654L59.0798 63.3581V60.42L70.8325 54.5436V58.5836L73.0361 60.7872H78.178L80.3816 59.6854L81.4834 57.4818V54.1763L79.647 52.34L68.2616 49.7691L61.6507 43.1582V31.0382L71.1998 21.4891H91.0325L95.6601 35.4454L89.343 33.2418H79.647L77.4434 34.3436L76.3416 36.5473V38.0163L77.8107 39.4854L89.1961 42.0563L96.1743 49.0345V63.3581ZM146.121 63.3581L136.571 72.9072H113.801L104.251 63.3581V31.0382L113.801 21.4891H136.571L146.121 31.0382V63.3581ZM131.43 56.38V37.2818L129.961 34.3436L127.022 32.8745H123.35L120.411 34.3436L118.942 37.2818V56.38L120.411 59.3181L123.35 60.7872H127.022L129.961 59.3181L131.43 56.38ZM199.407 62.2563L193.897 73.2745H186.185L178.839 65.9291V56.38L178.105 55.6454H171.861L171.127 56.38V67.0309L172.963 72.9072H155.334L157.17 67.0309V27.3655L155.334 21.4891H187.287L196.836 31.0382V44.6273L190.592 50.8709L192.428 52.7072V58.2163L194.999 60.7872L199.407 62.2563ZM182.512 39.4854V37.6491L181.043 34.7109L178.105 33.2418H171.861L171.127 33.9764V43.1582L171.861 43.8927H178.105L181.043 42.4236L182.512 39.4854ZM247.551 63.3581L238.002 72.9072H215.231L205.682 63.3581V31.0382L215.231 21.4891H238.002L247.551 31.0382V63.3581ZM232.86 56.38V37.2818L231.391 34.3436L228.453 32.8745H224.78L221.842 34.3436L220.373 37.2818V56.38L221.842 59.3181L224.78 60.7872H228.453L231.391 59.3181L232.86 56.38ZM300.103 72.9072H284.677L286.146 67.0309V65.5618L272.19 44.6273L270.721 40.9545L271.088 44.6273V67.0309L272.924 72.9072H256.764L258.601 67.0309V27.3655L256.397 21.4891H272.19L285.044 40.8076L286.514 44.26L286.146 40.7342V27.3655L284.31 21.4891H300.103L298.266 27.3655V67.0309L300.103 72.9072Z" fill="#FFA217"/>
<path d="M49.7454 67H31.7491L32.4836 61.1236L31.3818 56.7164L30.6472 55.9818L26.9745 57.8182H22.2L18.5273 55.9818L17.7927 56.7164L16.6909 61.1236L17.4254 67H0.53091L3.46909 61.1236L13.7527 20.3564L12.6509 15.5819H37.6254L36.5236 20.3564L46.8072 61.1236L49.7454 67ZM28.4436 43.4946L24.9178 28.4364L24.5505 25.8655L24.1833 28.4364L20.6574 43.4946L21.2451 44.9637L22.7142 45.6982H26.3869L27.856 44.9637L28.4436 43.4946ZM87.5659 57.4509L78.0168 67H57.8168L52.675 61.8582L50.4714 57.4509V54.5127L62.2241 48.6364V52.6764L64.4277 54.88H69.5696L71.7732 53.7782L72.875 51.5746V48.2691L71.0386 46.4327L59.6532 43.8618L53.0423 37.2509V25.1309L62.5914 15.5819H82.4241L87.0517 29.5382L80.7346 27.3346H71.0386L68.835 28.4364L67.7332 30.64V32.1091L69.2023 33.5782L80.5877 36.1491L87.5659 43.1273V57.4509ZM137.512 57.4509L127.963 67H105.192L95.6431 57.4509V25.1309L105.192 15.5819H127.963L137.512 25.1309V57.4509ZM122.821 50.4727V31.3746L121.352 28.4364L118.414 26.9673H114.741L111.803 28.4364L110.334 31.3746V50.4727L111.803 53.4109L114.741 54.88H118.414L121.352 53.4109L122.821 50.4727ZM190.798 56.3491L185.289 67.3673H177.576L170.231 60.0218V50.4727L169.496 49.7382H163.253L162.518 50.4727V61.1236L164.355 67H146.725L148.562 61.1236V21.4582L146.725 15.5819H178.678L188.227 25.1309V38.72L181.984 44.9637L183.82 46.8V52.3091L186.391 54.88L190.798 56.3491ZM173.904 33.5782V31.7419L172.435 28.8037L169.496 27.3346H163.253L162.518 28.0691V37.2509L163.253 37.9855H169.496L172.435 36.5164L173.904 33.5782ZM238.943 57.4509L229.393 67H206.623L197.073 57.4509V25.1309L206.623 15.5819H229.393L238.943 25.1309V57.4509ZM224.252 50.4727V31.3746L222.783 28.4364L219.844 26.9673H216.172L213.233 28.4364L211.764 31.3746V50.4727L213.233 53.4109L216.172 54.88H219.844L222.783 53.4109L224.252 50.4727ZM291.494 67H276.069L277.538 61.1236V59.6546L263.581 38.72L262.112 35.0473L262.48 38.72V61.1236L264.316 67H248.156L249.992 61.1236V21.4582L247.789 15.5819H263.581L276.436 34.9004L277.905 38.3528L277.538 34.8269V21.4582L275.701 15.5819H291.494L289.658 21.4582V61.1236L291.494 67Z" fill="#FDD08D"/>
</svg>
